{"title":"Bellator 151 Prelims 720p WEB-DL x264 [TJET]","uid":13752389,"size":2372234765,"categoryP":"video","categoryS":"hd___tv_shows","magnet":"?xt=urn:btih:b6807cdc0503c8df6033385ddd8deb7ef94cad1f&amp;dn=Bellator+151+Prelims+720p+WEB-DL+x264+%5BTJET%5D&amp;tr=udp%3A%2F%2Ftracker.leechers-paradise.org%3A6969&amp;tr=udp%3A%2F%2Fzer0day.ch%3A1337&amp;tr=udp%3A%2F%2Fopen.demonii.com%3A1337&amp;tr=udp%3A%2F%2Ftracker.coppersurfer.tk%3A6969&amp;tr=udp%3A%2F%2Fexodus.desync.com%3A6969","seeders":0,"leechers":2,"uploader":"CenaCme","files":2,"time":1457169003,"description":"Ray Wood vs Chris Jones\r\nChance Recountre vs Justin Patterson\r\nRicky Turcios vs Steve Garcia\r\nNeiman Gracie vs Roger Carroll\r\nJermayne Barnes vs Derek Palmer\r\n\r\nGeneral\r\nComplete name                            : Bellator.151.Prelims.720p.WEB-DL.x264.mp4\r\nFormat                                   : MPEG-4\r\nFormat profile                           : Base Media\r\nCodec ID                                 : isom\r\nFile size                                : 2.21 GiB\r\nDuration                                 : 1h 30mn\r\nOverall bit rate mode                    : Constant\r\nOverall bit rate                         : 3 492 Kbps\r\nWriting application                      : Lavf57.25.100\r\n\r\nVideo\r\nID                                       : 1\r\nFormat                                   : AVC\r\nFormat/Info                              : Advanced Video Codec\r\nFormat profile                           :   \r\nFormat settings, CABAC                   : Yes\r\nFormat settings, ReFrames                : 4 frames\r\nFormat settings, GOP                     : M=4, N=90\r\nCodec ID                                 : avc1\r\nCodec ID/Info                            : Advanced Video Coding\r\nDuration                                 : 1h 30mn\r\nBit rate mode                            : Constant\r\nBit rate                                 : 3 404 Kbps\r\nWidth                                    : 1 280 pixels\r\nHeight                                   : 720 pixels\r\nDisplay aspect ratio                     : 16:9\r\nFrame rate mode                          : Variable\r\nFrame rate                               : 29.970 fps\r\nMinimum frame rate                       : 4.274 fps\r\nMaximum frame rate                       : 16 000.000 fps\r\nStandard                                 : NTSC\r\nColor space                              : YUV\r\nChroma subsampling                       : 4:2:0\r\nBit depth                                : 8 bits\r\nScan type                                : Progressive\r\nBits/(Pixel*Frame)                       : 0.123\r\nStream size                              : 2.15 GiB (97%)\r\nColor primaries                          : BT.709\r\nTransfer characteristics                 : BT.709\r\nMatrix coefficients                      : BT.709\r\n\r\nAudio\r\nID                                       : 2\r\nFormat                                   : AAC\r\nFormat/Info                              : Advanced Audio Codec\r\nFormat profile                           : HE-AAC / LC\r\nCodec ID                                 : 40\r\nDuration                                 : 1h 30mn\r\nBit rate mode                            : Constant\r\nBit rate                                 : 96.0 Kbps\r\nChannel(s)                               : 2 channels\r\nChannel positions                        : Front: L R\r\nSampling rate                            : 48.0 KHz / 24.0 KHz\r\nCompression mode                         : Lossy\r\nStream size                              : 61.4 MiB (3%)\r\n\r\n\r\nThumb sheet:\r\n \nhttp://extraimago.com/image/aTO5","torrent":{"xt":"urn:btih:b6807cdc0503c8df6033385ddd8deb7ef94cad1f","amp;dn":"Bellator+151+Prelims+720p+WEB-DL+x264+%5BTJET%5D","amp;tr":["udp%3A%2F%2Ftracker.leechers-paradise.org%3A6969","udp%3A%2F%2Fzer0day.ch%3A1337","udp%3A%2F%2Fopen.demonii.com%3A1337","udp%3A%2F%2Ftracker.coppersurfer.tk%3A6969","udp%3A%2F%2Fexodus.desync.com%3A6969"],"infoHash":"b6807cdc0503c8df6033385ddd8deb7ef94cad1f","infoHashBuffer":{"type":"Buffer","data":[182,128,124,220,5,3,200,223,96,51,56,93,221,141,235,126,249,76,173,31]},"announce":[],"urlList":[]}}